HIERARCHY
ROOT hip
{
	OFFSET 0.000000 0.000000 0.000000 
	CHANNELS 6 Xposition Yposition Zposition Xrotation Zrotation Yrotation
	JOINT abdomen
	{
		OFFSET 0.000000 3.402643 0.000000 
		CHANNELS 3 Xrotation Zrotation Yrotation
		JOINT chest
		{
			OFFSET 0.000000 8.438565 -0.680529 
			CHANNELS 3 Xrotation Zrotation Yrotation
			JOINT neck
			{
				OFFSET 0.000000 10.207942 -0.272212 
				CHANNELS 3 Xrotation Zrotation Yrotation
				JOINT head
				{
					OFFSET 0.000000 3.130431 0.000000 
					CHANNELS 3 Xrotation Zrotation Yrotation
					End Site
					{
						OFFSET 0.000000 3.130435 0.000000 
					}
				}
			}
			JOINT lCollar
			{
				OFFSET 3.470700 6.669187 -0.816635 
				CHANNELS 3 Yrotation Zrotation Xrotation
				JOINT lShldr
				{
					OFFSET 3.198488 0.000000 0.000000 
					CHANNELS 3 Zrotation Yrotation Xrotation
					JOINT lForeArm
					{
						OFFSET 10.139888 0.000000 0.000000 
						CHANNELS 3 Yrotation Zrotation Xrotation
						JOINT lHand
						{
							OFFSET 8.370511 0.000000 0.000000 
							CHANNELS 3 Zrotation Yrotation Xrotation
							End Site
							{
								OFFSET 4.083176 0.000000 0.000000 
							}
						}
					}
				}
			}
			JOINT rCollar
			{
				OFFSET -3.470700 6.669187 -0.816635 
				CHANNELS 3 Yrotation Zrotation Xrotation
				JOINT rShldr
				{
					OFFSET -3.198488 0.000000 0.000000 
					CHANNELS 3 Zrotation Yrotation Xrotation
					JOINT rForeArm
					{
						OFFSET -10.139888 0.000000 0.000000 
						CHANNELS 3 Yrotation Zrotation Xrotation
						JOINT rHand
						{
							OFFSET -8.370511 0.000000 0.000000 
							CHANNELS 3 Zrotation Yrotation Xrotation
							End Site
							{
								OFFSET -4.083176 0.000000 0.000000 
							}
						}
					}
				}
			}
		}
	}
	JOINT lThigh
	{
		OFFSET 5.308129 -1.633274 1.361059 
		CHANNELS 3 Xrotation Zrotation Yrotation
		JOINT lShin
		{
			OFFSET -2.041588 -20.007561 0.000000 
			CHANNELS 3 Xrotation Zrotation Yrotation
			JOINT lFoot
			{
				OFFSET 0.000000 -19.190928 -1.224953 
				CHANNELS 3 Xrotation Yrotation Zrotation
				End Site
				{
					OFFSET 0.000000 -2.449906 4.627600 
				}
			}
		}
	}
	JOINT rThigh
	{
		OFFSET -5.308129 -1.633274 1.361059 
		CHANNELS 3 Xrotation Zrotation Yrotation
		JOINT rShin
		{
			OFFSET 2.041588 -20.007561 0.000000 
			CHANNELS 3 Xrotation Zrotation Yrotation
			JOINT rFoot
			{
				OFFSET 0.000000 -19.190928 -1.224953 
				CHANNELS 3 Xrotation Yrotation Zrotation
				End Site
				{
					OFFSET 0.000000 -2.449906 4.627600 
				}
			}
		}
	}
}
MOTION
Frames: 18
Frame Time: 0.016667
0.023771 49.371883 3.321092 9.498960 0.038948 -4.394530 14.737456 -4.050469 1.918247 -9.718648 0.634001 -2.812652 51.558491 8.067881 2.614341 -79.550331 -0.458588 2.382814 6.367789 -10.762793 8.850383 -45.166267 33.009525 20.428202 -64.945396 -1.220114 -2.590250 -15.610430 50.221531 -11.742468 -4.286107 24.994184 15.263711 33.323414 -19.582788 28.007618 77.076981 0.588067 -2.691438 -24.418896 -67.532646 33.034336 -0.019868 3.542214 10.366210 3.891434 -6.264873 -0.686333 -5.528670 4.664354 2.511068 -0.596712 -10.172602 -24.919689 4.441109 5.667396 0.422458 1.955669 -4.515768 11.171860 
0.047543 49.300709 3.152938 8.940643 0.194778 -4.238290 15.266409 -4.128690 1.859792 -9.450790 0.380471 -2.587898 51.558491 8.067881 2.614341 -80.944176 -0.165881 2.304678 6.290080 -10.945828 8.817347 -45.638958 31.892735 19.673353 -64.061325 -1.292461 -2.558699 -14.633624 48.331314 -10.469826 -4.551409 24.991030 15.323300 33.624916 -18.723789 28.146675 77.073441 0.662555 -2.658682 -24.225887 -67.454178 32.778931 -0.078634 3.438153 10.538032 4.962368 -6.262005 -0.805250 -6.250104 4.529787 2.604954 -1.017226 -10.766462 -24.984455 6.204021 5.653919 0.518128 1.574067 -4.494373 10.835149 
0.082188 49.225586 2.980016 8.245801 0.350623 -4.189494 15.885787 -4.109281 1.811092 -9.175179 0.126844 -2.373041 51.558491 8.067881 2.614341 -82.329613 0.117106 2.138687 6.212150 -11.128763 8.784359 -45.901619 30.713593 19.160421 -63.002743 -1.273432 -2.578970 -13.595141 46.334339 -9.179731 -4.968170 24.991329 15.421261 33.902748 -17.840511 28.379059 76.986855 0.570926 -2.693609 -24.484917 -67.436348 32.819283 -0.078097 3.253132 10.722478 5.892171 -6.257240 -0.929932 -6.826243 4.432254 2.664358 -1.330390 -11.427035 -25.142336 8.065228 5.620269 0.717537 1.190322 -4.253843 10.764625 
0.116832 49.150463 2.807105 7.560989 0.506487 -4.140721 16.504831 -4.099629 1.761691 -8.910891 -0.136623 -2.148455 51.558491 8.067881 2.614341 -83.716751 0.400156 1.962979 6.134000 -11.311598 8.751423 -46.148277 29.535599 18.668915 -61.944298 -1.245865 -2.602120 -12.652122 44.332012 -7.979709 -5.370735 24.993742 15.509877 34.169991 -16.950602 28.612797 76.900208 0.488890 -2.726553 -24.759396 -67.428345 32.866989 -0.097766 3.055021 10.886097 6.848233 -6.245610 -1.027816 -7.425864 4.331421 2.733032 -1.652452 -12.092115 -25.306293 9.906229 5.588509 0.915494 0.816894 -4.003462 10.710337 
0.162184 49.091156 2.628817 6.930149 0.594185 -4.091982 17.044100 -4.168085 1.703241 -8.648863 -0.390400 -1.943447 51.558491 8.067881 2.614341 -84.923241 0.575885 1.806746 6.066767 -11.502537 8.718409 -46.573528 28.339905 17.825352 -61.151810 -1.236990 -2.530957 -12.022217 42.569702 -6.997898 -5.606233 24.997786 15.656032 34.685543 -16.553661 27.919338 76.808334 0.575604 -2.697325 -23.356659 -67.604713 31.452293 -0.078562 2.955164 11.045551 7.851780 -6.225240 -1.149143 -8.049390 4.291477 2.862810 -2.013398 -12.826977 -25.458548 11.682806 5.551728 1.174507 0.450514 -3.954466 10.488847 
0.207537 49.031841 2.450536 6.309223 0.681893 -4.043147 17.574192 -4.246324 1.635058 -8.378700 -0.653999 -1.728737 51.558491 8.067881 2.614341 -86.140167 0.761403 1.650634 5.986164 -11.686193 8.674089 -46.974422 27.148237 17.005840 -60.360260 -1.227752 -2.462400 -11.445762 40.791801 -6.054087 -5.843577 24.990139 15.784842 35.185646 -16.143101 27.232336 76.725990 0.652250 -2.667721 -21.922596 -67.780121 30.005836 -0.049146 2.847478 11.204006 8.850699 -6.208526 -1.259682 -8.666733 4.269919 2.968520 -2.345840 -13.566131 -25.617950 13.441537 5.501250 1.458848 0.096193 -3.908111 10.244425 
0.271901 48.972534 2.270435 5.617135 0.828140 -3.916312 18.184601 -4.305076 1.546678 -8.022988 -0.898120 -1.523709 51.558491 8.067881 2.614341 -87.095047 0.917652 1.504182 5.869639 -11.683146 8.687074 -47.460743 25.933630 16.072149 -59.917084 -1.308246 -2.506039 -11.167059 39.711296 -5.794135 -5.848105 24.989143 15.793650 35.826111 -16.305506 25.762537 76.463982 0.565268 -2.623236 -20.270180 -68.076973 28.399942 0.048341 2.596863 11.212194 9.629354 -6.002322 -1.337803 -9.025859 4.272781 2.750819 -2.785069 -14.142392 -25.481752 15.130684 5.462169 1.620618 -0.053586 -3.762090 10.174166 
0.336263 48.913216 2.090333 4.924880 0.984161 -3.799273 18.804705 -4.373587 1.459032 -7.668797 -1.152039 -1.318682 51.558491 8.067881 2.614341 -88.060669 1.073922 1.347969 5.743481 -11.681586 8.698169 -47.924751 24.713486 15.150487 -59.463894 -1.379825 -2.550536 -10.899541 38.620842 -5.547010 -5.855568 24.997545 15.806578 36.463497 -16.454866 24.287415 76.193413 0.478652 -2.581913 -18.561922 -68.368164 26.733843 0.165799 2.330484 11.208084 10.411011 -5.768541 -1.391646 -9.371121 4.276666 2.510442 -3.233715 -14.722381 -25.330873 16.797510 5.415751 1.779087 -0.205526 -3.639138 10.115927 
0.384811 48.865765 1.881212 4.241085 1.140093 -3.779907 19.424498 -4.432311 1.380381 -7.402202 -1.318031 -1.279857 51.558491 8.067881 2.614341 -88.849304 1.073863 1.474900 5.351132 -11.627331 8.608850 -48.717312 23.697058 13.527930 -59.375504 -1.372615 -2.552147 -11.027528 38.234322 -5.972694 -5.771247 24.997639 15.728903 37.309227 -16.649818 22.459301 75.929688 0.465089 -2.502293 -15.425173 -68.664261 23.423120 0.223927 2.189394 10.763337 11.218702 -5.962746 -1.478044 -9.568605 4.575844 2.490298 -3.663379 -15.346327 -24.746149 18.484600 5.346829 1.875895 0.140569 -3.812865 10.207323 
0.433357 48.818325 1.672086 3.547630 1.296032 -3.760570 20.044228 -4.500794 1.302486 -7.135876 -1.493796 -1.231069 51.558491 8.067881 2.614341 -89.647438 1.083561 1.602015 4.945768 -11.564536 8.511646 -49.482769 22.662342 11.925130 -59.287552 -1.375155 -2.553727 -11.149884 37.857723 -6.396204 -5.682096 24.998985 15.664227 38.154793 -16.813459 20.625221 75.657974 0.461353 -2.424730 -12.234733 -68.889542 20.054583 0.273153 2.074389 10.330572 12.021359 -6.159406 -1.577254 -9.775055 4.875317 2.471894 -4.112042 -15.972761 -24.145388 20.147701 5.276534 1.931401 0.448915 -3.956547 10.320442 
0.461892 48.774822 1.407046 2.982838 1.461868 -3.653396 20.750694 -4.618282 1.107009 -6.781831 -1.571886 -1.260363 51.558491 8.067881 2.614341 -90.260674 1.063963 1.738707 4.421146 -11.516340 8.443743 -50.618469 21.680506 9.622272 -59.476589 -1.276649 -2.423958 -11.529886 38.173817 -7.166485 -5.553615 24.990870 15.652329 39.197414 -16.909117 18.595165 75.306137 0.545513 -2.488592 -9.476773 -69.276810 17.476887 0.253539 1.915265 10.064927 12.648407 -6.063035 -1.558946 -9.627987 5.036991 2.358331 -4.825344 -16.593851 -23.515518 22.009048 5.135546 2.183449 0.701313 -4.223980 10.545290 
0.490423 48.731335 1.142000 2.408623 1.627721 -3.556026 21.458765 -4.735744 0.901014 -6.427706 -1.649973 -1.289653 51.558491 8.067881 2.614341 -90.883636 1.054129 1.865637 3.902717 -11.456573 8.365522 -51.713383 20.653902 7.364691 -59.656872 -1.179339 -2.296186 -11.910439 38.476021 -7.948312 -5.432847 24.990669 15.631487 40.238895 -16.967548 16.552820 74.954483 0.639523 -2.550066 -6.651466 -69.615891 14.828055 0.224402 1.773684 9.801122 13.269355 -5.983503 -1.519841 -9.493959 5.198058 2.277819 -5.537420 -17.212830 -22.888071 23.840923 4.964992 2.443786 0.989172 -4.475616 10.777257 
0.493129 48.687840 0.831557 1.783727 1.715778 -3.370552 22.436022 -4.862862 0.754213 -5.897651 -1.718288 -1.328992 51.558491 8.067881 2.614341 -90.886871 1.054229 1.689886 3.301984 -11.240883 8.233366 -52.893017 19.133514 5.108296 -60.009087 -1.188797 -2.286842 -12.416340 38.914207 -8.982955 -5.432847 24.990669 15.631487 41.414280 -16.608004 14.188662 74.776909 0.634517 -2.555601 -3.525379 -69.748718 11.621507 0.156087 1.724591 9.526232 13.963313 -6.032910 -1.607515 -9.679728 5.435112 2.002702 -6.367648 -17.600286 -22.226685 25.689617 4.887560 2.544652 2.115104 -4.749866 11.130416 
0.495832 48.644348 0.521119 1.158548 1.813585 -3.194849 23.414782 -4.989964 0.597692 -5.367576 -1.796371 -1.358285 51.558491 8.067881 2.614341 -90.880341 1.054319 1.513954 2.702124 -11.022631 8.098589 -54.003590 17.570234 2.902369 -60.361271 -1.198225 -2.277101 -12.939906 39.346806 -10.033221 -5.432847 24.990669 15.631487 42.563934 -16.197933 11.821610 74.608894 0.629028 -2.558928 -0.367069 -69.818748 8.395207 0.087963 1.672919 9.261339 14.640057 -6.114077 -1.718021 -9.862561 5.654350 1.783370 -7.197312 -17.977528 -21.570240 27.533997 4.799543 2.612458 3.253842 -5.012913 11.511719 
0.479298 48.585033 0.253176 0.661247 1.911425 -3.009394 24.305475 -5.117030 0.450912 -4.922262 -1.786453 -1.553502 51.558491 8.067881 2.614341 -89.652771 1.074111 0.810771 2.298856 -10.793966 8.014131 -54.693493 15.556954 1.019001 -60.879238 -1.193798 -2.265015 -13.572731 39.694530 -11.385694 -5.418950 24.993965 15.618626 43.517719 -15.431044 9.185464 74.515198 0.748339 -2.558994 3.053166 -69.872581 4.751813 -0.067652 1.594585 8.999043 15.341728 -6.094066 -1.876928 -9.931710 5.765043 1.722923 -8.075992 -18.295881 -20.886024 29.009768 4.813831 2.700985 4.201074 -5.268939 11.844601 
0.462756 48.525715 -0.014748 0.153987 2.019014 -2.833712 25.187952 -5.244072 0.293527 -4.487084 -1.776526 -1.739262 51.558491 8.067881 2.614341 -88.415886 1.113279 0.107591 1.896219 -10.564234 7.929450 -55.320438 13.518040 -0.814683 -61.407135 -1.207223 -2.246400 -14.210792 40.036987 -12.757973 -5.418950 24.993965 15.618626 44.444294 -14.623554 6.560508 74.421959 0.867972 -2.561370 6.507234 -69.850159 1.069582 -0.233814 1.530268 8.748367 16.036867 -6.075516 -2.066154 -10.007165 5.861871 1.665461 -8.983991 -18.598457 -20.211090 30.515465 4.814111 2.789643 5.141669 -5.521654 12.201205 
0.402270 48.466408 -0.159907 -0.293689 2.175512 -2.589731 25.724205 -5.341791 0.087509 -4.132806 -1.766671 -1.836871 51.558491 8.067881 2.614341 -86.027283 1.103454 -0.605545 1.852405 -10.027400 7.984352 -55.019348 11.284748 -1.602858 -62.120270 -1.123057 -2.360540 -14.381877 39.836704 -13.743415 -5.499069 24.994795 15.665767 45.168427 -14.030580 3.444110 74.680618 0.827529 -2.522349 9.195712 -69.848389 -1.960581 -0.223091 1.505543 8.392756 16.485558 -6.075541 -2.107595 -10.284606 5.983559 1.622790 -9.540840 -18.962938 -19.775505 32.011948 4.721182 2.854321 6.196174 -5.729280 12.749946 
0.341779 48.407101 -0.305027 -0.740032 2.341805 -2.335625 26.251411 -5.449207 -0.118513 -3.788327 -1.756811 -1.934780 51.558491 8.067881 2.614341 -83.639351 1.132513 -1.318488 1.807278 -9.500646 8.032022 -54.685146 9.045063 -2.397310 -62.823978 -1.036980 -2.471924 -14.551219 39.634041 -14.728651 -5.569824 24.997921 15.708839 45.851379 -13.397334 0.347590 74.949341 0.796591 -2.481504 11.882259 -69.809410 -4.993340 -0.213689 1.479142 8.046986 16.939760 -6.054595 -2.156015 -10.565970 6.079345 1.512664 -10.126331 -19.311546 -19.303278 33.525181 4.638430 2.881384 7.247378 -5.935581 13.360987 
